<svg width="80" height="80" fill="none" xmlns="http://www.w3.org/2000/svg"><defs><clipPath id="clip1_209"><path id="quality" transform="translate(-.5)" fill="#fff" fill-opacity="0" d="M0 0h80v80H0z"/></clipPath></defs><g clip-path="url('#clip1_209')" fill="#859BA6" fill-opacity="1" fill-rule="nonzero"><path id="Vector" d="M52.59 23.93c-.66-.66-1.72-.66-2.37 0L33.59 40.57l-4.75-5.05c-.32-.34-.76-.53-1.23-.53s-.91.19-1.23.53l-5.97 6.41c-.62.65-.62 1.68 0 2.33L32.3 56.17c.32.31.75.49 1.19.48.45.01.88-.17 1.2-.48l23.87-23.92c.31-.32.49-.75.49-1.2 0-.45-.18-.88-.49-1.19l-5.97-5.93ZM33.53 52.5l-9.55-9.56 3.63-3.9 4.72 5.04c.32.33.76.51 1.21.51.46 0 .9-.18 1.21-.51l16.66-16.67 3.58 3.58L33.53 52.5Z"/><path id="Vector" d="M39.5 6.66c-8.85 0-17.32 3.51-23.58 9.76a33.351 33.351 0 0 0 0 47.15 33.351 33.351 0 0 0 47.15 0A33.351 33.351 0 0 0 72.83 40a33.345 33.345 0 0 0-9.77-23.56A33.39 33.39 0 0 0 39.5 6.66Zm0 63.29a29.99 29.99 0 0 1-21.2-8.78 29.99 29.99 0 0 1-8.78-21.2c.01-7.95 3.16-15.57 8.79-21.19a29.938 29.938 0 0 1 21.2-8.77c7.95 0 15.57 3.16 21.19 8.79A29.98 29.98 0 0 1 69.47 40 30.012 30.012 0 0 1 39.5 69.97v-.02Z"/></g></svg>