<svg width="22.000000" height="22.000000" viewBox="0 0 22 22" fill="none" xmlns="http://www.w3.org/2000/svg" xmlns:xlink="http://www.w3.org/1999/xlink">
	<desc>
			Created with Pixso.
	</desc>
	<defs/>
	<rect id="Х" width="22.000000" height="22.000000" fill="#A2A2A2" fill-opacity="0"/>
	<path id="Vector" d="M0.55 19.26C-0.03 19.84 -0.03 20.77 0.55 21.35C1.13 21.93 2.07 21.93 2.65 21.35L10.89 13.15L19.34 21.56C19.92 22.14 20.86 22.14 21.44 21.56C22.02 20.98 22.02 20.05 21.44 19.47L12.99 11.05L21.56 2.52C22.14 1.94 22.14 1.01 21.56 0.43C20.98 -0.15 20.04 -0.15 19.46 0.43L10.89 8.96L2.53 0.64C1.95 0.06 1.01 0.06 0.43 0.64C-0.15 1.22 -0.15 2.15 0.43 2.73L8.79 11.05L0.55 19.26Z" fill="#A2A2A2" fill-opacity="1.000000" fill-rule="evenodd"/>
</svg>
