<svg width="80.000000" height="80.000000" viewBox="0 0 80 80" fill="none" xmlns="http://www.w3.org/2000/svg" xmlns:xlink="http://www.w3.org/1999/xlink">
	<desc>
			Created with Pixso.
	</desc>
	<defs>
		<clipPath id="clip1_209">
			<rect id="quality" width="80.000000" height="80.000000" transform="translate(-0.500000 0.000000)" fill="white" fill-opacity="0"/>
		</clipPath>
	</defs>
	<g clip-path="url(#clip1_209)">
		<path id="Vector" d="M52.59 23.93C51.93 23.27 50.87 23.27 50.22 23.93L33.59 40.57L28.84 35.52C28.52 35.18 28.08 34.99 27.61 34.99C27.14 34.99 26.7 35.18 26.38 35.52L20.41 41.93C19.79 42.58 19.79 43.61 20.41 44.26L32.3 56.17L32.3 56.17C32.62 56.48 33.05 56.66 33.49 56.65C33.94 56.66 34.37 56.48 34.69 56.17L58.56 32.25C58.87 31.93 59.05 31.5 59.05 31.05C59.05 30.6 58.87 30.17 58.56 29.86L52.59 23.93ZM33.53 52.5L23.98 42.94L27.61 39.04L32.33 44.08C32.65 44.41 33.09 44.59 33.54 44.59C34 44.59 34.44 44.41 34.75 44.08L51.41 27.41L54.99 30.99L33.53 52.5Z" fill="#859BA6" fill-opacity="1.000000" fill-rule="nonzero"/>
		<path id="Vector" d="M39.5 6.66C30.65 6.66 22.18 10.17 15.92 16.42C9.67 22.68 6.16 31.15 6.16 40C6.16 48.84 9.67 57.31 15.92 63.57C22.18 69.82 30.65 73.33 39.5 73.33C48.34 73.33 56.81 69.82 63.07 63.57C69.32 57.31 72.83 48.84 72.83 40C72.82 31.16 69.31 22.68 63.06 16.44C56.81 10.19 48.33 6.67 39.5 6.66L39.5 6.66ZM39.5 69.95C31.55 69.95 23.92 66.79 18.3 61.17C12.68 55.55 9.52 47.92 9.52 39.97C9.53 32.02 12.68 24.4 18.31 18.78C23.93 13.16 31.56 10 39.51 10.01C47.46 10.01 55.08 13.17 60.7 18.8C66.32 24.42 69.47 32.05 69.47 40C69.46 47.94 66.3 55.56 60.68 61.18C55.06 66.8 47.44 69.96 39.5 69.97L39.5 69.95Z" fill="#859BA6" fill-opacity="1.000000" fill-rule="nonzero"/>
	</g>
</svg>
